<svg xmlns="http://www.w3.org/2000/svg" width="23" height="21"><g opacity=".5"><path fill="#1c2126" d="M6.776 2.567c.933 0 1.79.297 2.546.882.675.522 1.145 1.181 1.42 1.643a.77.77 0 00.667.379.77.77 0 00.667-.38c.275-.46.745-1.12 1.42-1.642a4.08 4.08 0 012.546-.882A4.43 4.43 0 0119.338 4c.864.938 1.34 2.234 1.34 3.65 0 1.493-.555 2.829-1.8 4.33-1.202 1.452-2.991 2.977-5.063 4.742-.726.619-1.548 1.32-2.408 2.068a245.735 245.735 0 00-2.4-2.064l-.004-.003c-2.072-1.766-3.861-3.29-5.064-4.743-1.245-1.501-1.8-2.837-1.8-4.33 0-1.416.476-2.712 1.34-3.65a4.43 4.43 0 013.297-1.432zm4.633 17.453c.299 0 .587-.109.811-.305.85-.743 1.67-1.442 2.393-2.058 2.115-1.802 3.942-3.359 5.213-4.893 1.42-1.714 2.082-3.34 2.082-5.116 0-1.725-.591-3.317-1.665-4.482a5.647 5.647 0 00-4.2-1.829 5.282 5.282 0 00-3.3 1.14c-.493.38-.94.848-1.334 1.392a6.75 6.75 0 00-1.334-1.393 5.282 5.282 0 00-3.3-1.139c-1.621 0-3.113.65-4.2 1.829C1.501 4.33.91 5.923.91 7.648c0 1.776.662 3.402 2.083 5.116 1.271 1.534 3.098 3.091 5.214 4.894l.003.003c.722.615 1.54 1.312 2.388 2.054.225.196.513.305.812.305z"/><path fill="none" stroke="#1c2126" stroke-miterlimit="20" stroke-width=".75" d="M6.776 2.567c.933 0 1.79.297 2.546.882.675.522 1.145 1.181 1.42 1.643a.77.77 0 00.667.379.77.77 0 00.667-.38c.275-.46.745-1.12 1.42-1.642a4.08 4.08 0 012.546-.882A4.43 4.43 0 0119.338 4c.864.938 1.34 2.234 1.34 3.65 0 1.493-.555 2.829-1.8 4.33-1.202 1.452-2.991 2.977-5.063 4.742-.726.619-1.548 1.32-2.408 2.068a245.735 245.735 0 00-2.4-2.064l-.004-.003c-2.072-1.766-3.861-3.29-5.064-4.743-1.245-1.501-1.8-2.837-1.8-4.33 0-1.416.476-2.712 1.34-3.65a4.43 4.43 0 013.297-1.432zm4.633 17.453c.299 0 .587-.109.811-.305.85-.743 1.67-1.442 2.393-2.058 2.115-1.802 3.942-3.359 5.213-4.893 1.42-1.714 2.082-3.34 2.082-5.116 0-1.725-.591-3.317-1.665-4.482a5.647 5.647 0 00-4.2-1.829 5.282 5.282 0 00-3.3 1.14c-.493.38-.94.848-1.334 1.392a6.75 6.75 0 00-1.334-1.393 5.282 5.282 0 00-3.3-1.139c-1.621 0-3.113.65-4.2 1.829C1.501 4.33.91 5.923.91 7.648c0 1.776.662 3.402 2.083 5.116 1.271 1.534 3.098 3.091 5.214 4.894l.003.003c.722.615 1.54 1.312 2.388 2.054.225.196.513.305.812.305z"/></g></svg>