<svg xmlns="http://www.w3.org/2000/svg" width="90" height="67"><path fill="#232323" d="M75.526 52.418a3.494 3.494 0 00-3.496 3.496 3.494 3.494 0 003.496 3.495 3.494 3.494 0 003.495-3.495 3.494 3.494 0 00-3.495-3.496zm-1.748-13.982a1.749 1.749 0 10.001 3.497 1.749 1.749 0 00-.001-3.497zM22.043 52.418a3.494 3.494 0 00-3.495 3.496 3.494 3.494 0 003.495 3.495 3.494 3.494 0 003.496-3.495 3.494 3.494 0 00-3.496-3.496z"/><path fill="#232323" d="M85.267 52.1c-1.55-3.945-5.408-6.657-9.762-6.657-4.478 0-8.43 2.868-9.887 6.99h-4.095V34.957h19.225a5.252 5.252 0 014.943 3.495h-4.943a1.748 1.748 0 100 3.496h5.244v8.739c0 .581-.287 1.096-.725 1.414zm-9.762 10.82a7 7 0 01-6.991-6.99c0-3.908 3.193-6.992 6.99-6.992 3.808 0 6.992 3.092 6.992 6.991a7 7 0 01-6.991 6.991zM31.909 52.434c-1.46-4.125-5.41-6.991-9.887-6.991-4.478 0-8.43 2.868-9.887 6.99H5.244a1.75 1.75 0 01-1.748-1.747V5.243a1.75 1.75 0 011.748-1.747h51.035a1.75 1.75 0 011.748 1.747v47.19zM22.022 62.92a7 7 0 01-6.99-6.99c0-3.908 3.192-6.992 6.99-6.992 3.807 0 6.992 3.092 6.992 6.991a7 7 0 01-6.992 6.991zm55.23-47.19c0 .965-.782 1.748-1.747 1.748H61.522v-3.496h13.983a1.75 1.75 0 011.748 1.748zm-1.364 5.244L78.51 31.46H63.994l4.008-4.007a1.747 1.747 0 10-2.472-2.472l-4.007 4.007v-8.015zm3.24-1.456a5.202 5.202 0 001.62-3.788 5.25 5.25 0 00-5.243-5.243H61.522V5.243A5.25 5.25 0 0056.28 0H5.244A5.25 5.25 0 000 5.243v45.443a5.25 5.25 0 005.244 5.243h6.292c0 5.783 4.704 10.487 10.486 10.487 5.783 0 10.487-4.704 10.487-10.487h32.51c0 5.783 4.703 10.487 10.486 10.487s10.487-4.704 10.487-10.487c0-.1-.005-.198-.008-.298a5.251 5.251 0 003.503-4.945V40.199c0-4.345-3.187-7.958-7.346-8.627z"/><path fill="#232323" d="M30.782 38.436c-6.746 0-12.234-5.489-12.234-12.235 0-6.746 5.488-12.234 12.234-12.234 6.746 0 12.235 5.488 12.235 12.234 0 6.746-5.489 12.235-12.235 12.235zm0-27.965c-8.673 0-15.73 7.057-15.73 15.73 0 8.674 7.057 15.73 15.73 15.73 8.674 0 15.73-7.056 15.73-15.73 0-8.673-7.056-15.73-15.73-15.73z"/><path fill="#232323" d="M37.773 24.453H32.53V19.21a1.748 1.748 0 10-3.495 0v6.991c0 .966.782 1.748 1.747 1.748h6.991a1.748 1.748 0 100-3.496z"/></svg>