<svg xmlns="http://www.w3.org/2000/svg" width="26" height="28"><path fill="#232323" d="M23.856 15.825a2.24 2.24 0 01-2.239 2.239h-1.342v-6.02h1.342a2.24 2.24 0 012.239 2.239zm-9.153 9.552H13.08a.976.976 0 110-1.953h1.623a.976.976 0 110 1.953zm-8.817-7.313H4.543a2.24 2.24 0 01-2.238-2.239v-1.542a2.24 2.24 0 012.238-2.238h1.343zm15.969-7.303v-.987c0-2.362-.836-4.557-2.352-6.186C17.95 1.917 15.814 1 13.485 1h-.815c-2.33 0-4.465.917-6.018 2.588C5.136 5.218 4.3 7.412 4.3 9.774v.987A3.542 3.542 0 001 14.288v1.543a3.538 3.538 0 003.532 3.532h1.99a.65.65 0 00.647-.647v-7.318a.65.65 0 00-.647-.647h-.927v-.977c0-4.266 3.041-7.48 7.07-7.48h.814c4.034 0 7.07 3.214 7.07 7.48v.977h-.927a.65.65 0 00-.647.647v7.313a.65.65 0 00.647.647h.906c-.264 3.376-2.589 4.158-3.667 4.336a2.276 2.276 0 00-2.163-1.57H13.08a2.274 2.274 0 00-2.27 2.271 2.279 2.279 0 002.27 2.276h1.623a2.276 2.276 0 002.19-1.672 6.121 6.121 0 002.195-.75c1.17-.684 2.556-2.081 2.74-4.896a3.537 3.537 0 003.317-3.528v-1.542a3.523 3.523 0 00-3.29-3.522z"/><path fill="none" stroke="#232323" stroke-miterlimit="20" d="M23.856 15.825a2.24 2.24 0 01-2.239 2.239h-1.342v-6.02h1.342a2.24 2.24 0 012.239 2.239zm-9.153 9.552H13.08a.976.976 0 110-1.953h1.623a.976.976 0 110 1.953zm-8.817-7.313H4.543a2.24 2.24 0 01-2.238-2.239v-1.542a2.24 2.24 0 012.238-2.238h1.343zm15.969-7.303v-.987c0-2.362-.836-4.557-2.352-6.186C17.95 1.917 15.814 1 13.485 1h-.815c-2.33 0-4.465.917-6.018 2.588C5.136 5.218 4.3 7.412 4.3 9.774v.987A3.542 3.542 0 001 14.288v1.543a3.538 3.538 0 003.532 3.532h1.99a.65.65 0 00.647-.647v-7.318a.65.65 0 00-.647-.647h-.927v-.977c0-4.266 3.041-7.48 7.07-7.48h.814c4.034 0 7.07 3.214 7.07 7.48v.977h-.927a.65.65 0 00-.647.647v7.313a.65.65 0 00.647.647h.906c-.264 3.376-2.589 4.158-3.667 4.336a2.276 2.276 0 00-2.163-1.57H13.08a2.274 2.274 0 00-2.27 2.271 2.279 2.279 0 002.27 2.276h1.623a2.276 2.276 0 002.19-1.672 6.121 6.121 0 002.195-.75c1.17-.684 2.556-2.081 2.74-4.896a3.537 3.537 0 003.317-3.528v-1.542a3.523 3.523 0 00-3.29-3.522z"/></svg>