<svg xmlns="http://www.w3.org/2000/svg" width="24" height="18"><path fill="#1c2126" d="M1.798 8.562a.435.435 0 00.435-.435A4.792 4.792 0 017.02 3.34h10.443v-.87H7.019a5.663 5.663 0 00-5.656 5.656c0 .24.195.435.435.435z"/><path fill="none" stroke="#1c2126" stroke-miterlimit="20" stroke-width="1.3" d="M1.798 8.562a.435.435 0 00.435-.435A4.792 4.792 0 017.02 3.34h10.443v0-.87 0H7.019a5.663 5.663 0 00-5.656 5.656c0 .24.195.435.435.435z"/><path fill="#1c2126" d="M22.683 8.997a.435.435 0 00-.435.435 4.792 4.792 0 01-4.786 4.786H7.019v.87h10.443a5.663 5.663 0 005.656-5.656.435.435 0 00-.435-.435z"/><path fill="none" stroke="#1c2126" stroke-miterlimit="20" stroke-width="1.3" d="M22.683 8.997a.435.435 0 00-.435.435 4.792 4.792 0 01-4.786 4.786H7.019v.87h10.443a5.663 5.663 0 005.656-5.656.435.435 0 00-.435-.435z"/><path fill="#1c2126" d="M16.628-.367v6.483l3.241-3.241zM7.19 11.446v6.483l-3.24-3.242z"/></svg>