<svg xmlns="http://www.w3.org/2000/svg" width="23" height="21"><path fill="#1c2126" d="M6.557 2.188c.94 0 1.801.299 2.563.888.679.525 1.151 1.188 1.428 1.652a.775.775 0 00.671.382.775.775 0 00.671-.382c.277-.464.75-1.127 1.429-1.652a4.105 4.105 0 012.563-.888c1.281 0 2.46.512 3.316 1.441.87.943 1.349 2.247 1.349 3.672 0 1.503-.559 2.847-1.811 4.358-1.21 1.46-3.011 2.995-5.096 4.771a288.96 288.96 0 00-2.423 2.081c-.86-.752-1.686-1.456-2.414-2.077l-.004-.003c-2.085-1.777-3.886-3.311-5.096-4.772-1.252-1.511-1.811-2.855-1.811-4.358 0-1.425.479-2.729 1.348-3.672a4.458 4.458 0 013.317-1.44zM11.22 19.75c.3 0 .591-.109.817-.306.855-.748 1.68-1.451 2.407-2.07 2.128-1.815 3.967-3.381 5.246-4.924 1.43-1.726 2.095-3.361 2.095-5.148 0-1.736-.595-3.338-1.676-4.51A5.682 5.682 0 0015.881.95c-1.22 0-2.336.385-3.32 1.146a6.793 6.793 0 00-1.342 1.401 6.793 6.793 0 00-1.342-1.401A5.315 5.315 0 006.557.95a5.682 5.682 0 00-4.226 1.84C1.25 3.962.654 5.564.654 7.3c0 1.787.666 3.422 2.096 5.148 1.28 1.543 3.117 3.11 5.246 4.924l.004.003c.726.619 1.549 1.32 2.402 2.066.226.198.516.307.817.307z"/><path fill="none" stroke="#1c2126" stroke-miterlimit="20" stroke-width=".75" d="M6.557 2.188c.94 0 1.801.299 2.563.888.679.525 1.151 1.188 1.428 1.652a.775.775 0 00.671.382.775.775 0 00.671-.382c.277-.464.75-1.127 1.429-1.652a4.105 4.105 0 012.563-.888c1.281 0 2.46.512 3.316 1.441.87.943 1.349 2.247 1.349 3.672 0 1.503-.559 2.847-1.811 4.358-1.21 1.46-3.011 2.995-5.096 4.771a288.96 288.96 0 00-2.423 2.081c-.86-.752-1.686-1.456-2.414-2.077l-.004-.003c-2.085-1.777-3.886-3.311-5.096-4.772-1.252-1.511-1.811-2.855-1.811-4.358 0-1.425.479-2.729 1.348-3.672a4.458 4.458 0 013.317-1.44zM11.22 19.75c.3 0 .591-.109.817-.306.855-.748 1.68-1.451 2.407-2.07 2.128-1.815 3.967-3.381 5.246-4.924 1.43-1.726 2.095-3.361 2.095-5.148 0-1.736-.595-3.338-1.676-4.51A5.682 5.682 0 0015.881.95c-1.22 0-2.336.385-3.32 1.146a6.793 6.793 0 00-1.342 1.401 6.793 6.793 0 00-1.342-1.401A5.315 5.315 0 006.557.95a5.682 5.682 0 00-4.226 1.84C1.25 3.962.654 5.564.654 7.3c0 1.787.666 3.422 2.096 5.148 1.28 1.543 3.117 3.11 5.246 4.924l.004.003c.726.619 1.549 1.32 2.402 2.066.226.198.516.307.817.307z"/></svg>