<svg xmlns="http://www.w3.org/2000/svg" width="20" height="25"><path fill="#1c2126" d="M4.54 22.786c-1.199 0-2.17-.793-2.189-1.769L3.615 6.762h2.131v1.934c0 .353.283.636.637.636a.634.634 0 00.636-.636V6.762h6.57v1.934c0 .353.282.636.636.636a.634.634 0 00.636-.636V6.762h2.132l1.268 14.255c-.019.976-.995 1.769-2.188 1.769zm5.766-20.513a3.285 3.285 0 013.282 3.212H7.024a3.285 3.285 0 013.282-3.212zm9.224 18.66L18.21 6.064a.635.635 0 00-.633-.58h-2.716A4.559 4.559 0 0010.306 1a4.559 4.559 0 00-4.555 4.485H3.035c-.33 0-.604.25-.632.58l-1.32 14.867c0 .02-.005.038-.005.057 0 1.693 1.551 3.07 3.461 3.07h11.534c1.91 0 3.461-1.377 3.461-3.07 0-.019 0-.038-.004-.057z"/><path fill="none" stroke="#1c2126" stroke-miterlimit="20" stroke-width=".75" d="M4.54 22.786c-1.199 0-2.17-.793-2.189-1.769L3.615 6.762h2.131v1.934c0 .353.283.636.637.636a.634.634 0 00.636-.636V6.762h6.57v1.934c0 .353.282.636.636.636a.634.634 0 00.636-.636V6.762h2.132l1.268 14.255c-.019.976-.995 1.769-2.188 1.769zm5.766-20.513a3.285 3.285 0 013.282 3.212H7.024a3.285 3.285 0 013.282-3.212zm9.224 18.66L18.21 6.064a.635.635 0 00-.633-.58h-2.716A4.559 4.559 0 0010.306 1a4.559 4.559 0 00-4.555 4.485H3.035c-.33 0-.604.25-.632.58l-1.32 14.867c0 .02-.005.038-.005.057 0 1.693 1.551 3.07 3.461 3.07h11.534c1.91 0 3.461-1.377 3.461-3.07 0-.019 0-.038-.004-.057z"/></svg>