<svg xmlns="http://www.w3.org/2000/svg" width="16" height="16"><g opacity=".7" fill="#232323"><path d="M11.548 6.65a.586.586 0 111.171 0 .586.586 0 01-1.171 0z" opacity=".7"/><path d="M13.481 1.672h-.762v-.586a.586.586 0 10-1.171 0v.586H8.882v-.586a.586.586 0 10-1.171 0v.586H5.075v-.586a.586.586 0 10-1.172 0v.586h-.732A2.346 2.346 0 00.828 4.015v9.138a2.346 2.346 0 002.343 2.344h4.481a.586.586 0 100-1.172H3.171a1.173 1.173 0 01-1.172-1.172V4.015c0-.646.526-1.172 1.172-1.172h.732v.586a.586.586 0 101.172 0v-.586H7.71v.586a.586.586 0 101.171 0v-.586h2.666v.586a.586.586 0 101.171 0v-.586h.762c.646 0 1.172.526 1.172 1.172v3.339a.586.586 0 101.171 0v-3.34a2.346 2.346 0 00-2.343-2.342z" opacity=".7"/><path d="M12.28 14.325a2.375 2.375 0 01-2.372-2.372A2.375 2.375 0 0112.28 9.58a2.375 2.375 0 012.373 2.373 2.375 2.375 0 01-2.373 2.372zm0-5.917a3.548 3.548 0 00-3.544 3.545 3.548 3.548 0 003.544 3.544 3.548 3.548 0 003.544-3.544 3.548 3.548 0 00-3.544-3.545z" opacity=".7"/><path d="M13.13 11.367h-.264v-.616a.586.586 0 10-1.172 0v1.201c0 .324.263.586.586.586h.85a.586.586 0 100-1.171zM9 6.65a.586.586 0 111.171 0A.586.586 0 019 6.65zM6.451 9.2a.586.586 0 111.172 0 .586.586 0 01-1.172 0zM3.903 6.65a.586.586 0 111.172 0 .586.586 0 01-1.172 0zm0 2.55a.586.586 0 111.172 0 .586.586 0 01-1.172 0zm0 2.547a.586.586 0 111.172 0 .586.586 0 01-1.172 0zm2.548 0a.586.586 0 111.172 0 .586.586 0 01-1.172 0zm0-5.097a.586.586 0 111.172 0 .586.586 0 01-1.172 0z" opacity=".7"/></g></svg>