<svg xmlns="http://www.w3.org/2000/svg" width="13" height="25"><path fill="#e30a17" d="M7.523 22.01l1.428-2.961h1.567zm-1.174.853l-.883-1.832a.344.344 0 00-.62.298l.329.68-2.995-2.96h1.567l.457.948a.344.344 0 00.62-.298l-.314-.65h3.678zM1.688 6.97H3.62v.598a.344.344 0 00.687 0V6.97h4.085v11.39H4.307V9.4a.344.344 0 10-.687 0v8.96H1.688zm3.51-3.914L3.74 6.284H2.143zm1.151-.88l1.854 4.107H4.495zm4.207 4.107H8.957L7.501 3.057zm1.142 11.16c0-.061.002-.12-.018-.18a.347.347 0 00-.363-.232.347.347 0 00-.305.316c-.012.158-.001 1.007-.001 1.007l-1.924.007-.008-11.39 1.926-.001.006 8.523v.113a.348.348 0 00.343.354.349.349 0 00.344-.358V6.774c0-.143.008-.272-.1-.39-.097-.106-.198-.209-.297-.314-.22-.232-4.685-4.949-4.708-4.971-.148-.146-.37-.125-.508.02L1.135 6.35a.432.432 0 00-.126.2C1 6.592 1 6.633 1 6.675v12.021c.002.1.037.189.108.26l.103.102 4.755 4.702.125.123c.13.128.33.158.477.037.094-.078.177-.173.264-.259l4.72-4.666a.448.448 0 00.131-.19c.018-.058.015-.118.015-.178v-1.183z"/><path fill="none" stroke="#e30a17" stroke-miterlimit="20" stroke-width=".75" d="M7.523 22.01l1.428-2.961h1.567zm-1.174.853l-.883-1.832a.344.344 0 00-.62.298l.329.68-2.995-2.96h1.567l.457.948a.344.344 0 00.62-.298l-.314-.65h3.678zM1.688 6.97H3.62v.598a.344.344 0 00.687 0V6.97h4.085v11.39H4.307V9.4a.344.344 0 10-.687 0v8.96H1.688zm3.51-3.914L3.74 6.284H2.143zm1.151-.88l1.854 4.107H4.495zm4.207 4.107H8.957L7.501 3.057zm1.142 11.16c0-.061.002-.12-.018-.18a.347.347 0 00-.363-.232.347.347 0 00-.305.316c-.012.158-.001 1.007-.001 1.007l-1.924.007-.008-11.39 1.926-.001.006 8.523v.113a.348.348 0 00.343.354.349.349 0 00.344-.358V6.774c0-.143.008-.272-.1-.39-.097-.106-.198-.209-.297-.314-.22-.232-4.685-4.949-4.708-4.971-.148-.146-.37-.125-.508.02L1.135 6.35a.432.432 0 00-.126.2C1 6.592 1 6.633 1 6.675v12.021c.002.1.037.189.108.26l.103.102 4.755 4.702.125.123c.13.128.33.158.477.037.094-.078.177-.173.264-.259l4.72-4.666a.448.448 0 00.131-.19c.018-.058.015-.118.015-.178v-1.183z"/></svg>