<svg xmlns="http://www.w3.org/2000/svg" width="20" height="20"><path fill="#232323" d="M17.54 14.103a3.608 3.608 0 01-3.604 3.604H5.311a3.608 3.608 0 01-3.604-3.604V5.478a3.608 3.608 0 013.604-3.604h8.625a3.608 3.608 0 013.604 3.604v8.625zM13.936.166H5.31A5.318 5.318 0 000 5.478v8.625a5.318 5.318 0 005.311 5.311h8.625a5.318 5.318 0 005.312-5.311V5.478A5.318 5.318 0 0013.936.166z"/><path fill="#232323" d="M9.624 13.042A3.256 3.256 0 016.372 9.79a3.256 3.256 0 013.252-3.25 3.256 3.256 0 013.252 3.251 3.256 3.256 0 01-3.252 3.252zm0-8.211a4.965 4.965 0 00-4.96 4.96 4.965 4.965 0 004.96 4.96 4.965 4.965 0 004.96-4.96 4.965 4.965 0 00-4.96-4.96zm5.168-1.448a1.257 1.257 0 00-1.253 1.252c0 .33.135.652.368.886.232.232.556.366.885.366.33 0 .652-.134.885-.366.234-.234.367-.557.367-.886 0-.33-.133-.653-.367-.886a1.258 1.258 0 00-.885-.366z"/></svg>