<svg xmlns="http://www.w3.org/2000/svg" width="22" height="17"><path fill="#343e48" d="M20.14 13.914c0 .757-.615 1.373-1.373 1.373H3.143a1.375 1.375 0 01-1.374-1.373V3.239c0-.757.617-1.373 1.374-1.373h15.62c.757 0 1.373.616 1.373 1.373v10.675zM18.768.707H3.143A2.53 2.53 0 00.614 3.235v10.679a2.53 2.53 0 002.529 2.528h15.62a2.53 2.53 0 002.529-2.528V3.239A2.528 2.528 0 0018.767.707z"/><path fill="#343e48" d="M13.655 8.442l5.057-4.535a.58.58 0 00.042-.817.58.58 0 00-.817-.043l-6.973 6.26-1.36-1.216a.855.855 0 00-.103-.094L3.963 3.043a.577.577 0 00-.817.047.577.577 0 00.047.817L8.311 8.48l-5.095 4.77a.58.58 0 00.791.848L9.18 9.259l1.403 1.254a.577.577 0 00.77-.005l1.442-1.292 5.142 4.886a.577.577 0 00.796-.839z"/></svg>